<?xml version="1.0" encoding="UTF-8"?>
<svg version="1.1" xmlns="http://www.w3.org/2000/svg" width="512" height="512">
<path d="M0 0 C0.794778 -0.00507454 1.589556 -0.01014909 2.40841818 -0.0153774 C3.27571759 -0.01587516 4.143017 -0.01637292 5.03659821 -0.01688576 C6.42559948 -0.02345914 6.42559948 -0.02345914 7.84266138 -0.03016531 C10.95308542 -0.04354554 14.06348112 -0.0497305 17.17392731 -0.0558567 C19.40132525 -0.0637584 21.62872192 -0.0720274 23.85611725 -0.08063698 C31.17883838 -0.10685348 38.50156521 -0.1221662 45.82431793 -0.13642311 C48.34631606 -0.14178331 50.86831414 -0.14716082 53.39031219 -0.15255547 C63.88349365 -0.17418536 74.37667499 -0.19307188 84.86987305 -0.20417786 C87.59166722 -0.20710733 90.31346135 -0.21006902 93.03525543 -0.21308327 C93.71170587 -0.21382932 94.38815631 -0.21457537 95.08510524 -0.21534403 C106.03111964 -0.2279843 116.97697111 -0.26119078 127.92290944 -0.3028851 C139.1734943 -0.34538668 150.42399921 -0.36847537 161.67467356 -0.37409842 C167.98636602 -0.37774776 174.29778236 -0.38972506 180.60939789 -0.42220116 C186.55203271 -0.45233983 192.49422516 -0.4585726 198.43692017 -0.4468174 C200.61207734 -0.44659714 202.7872554 -0.4548624 204.96234131 -0.47247124 C224.82107481 -0.62442404 236.04616498 3.54587477 250.55948639 17.45523643 C252.13876221 19.01983544 253.71281494 20.58971951 255.28232574 22.164114 C256.1519696 23.02864693 257.02161346 23.89317986 257.91761017 24.78391075 C260.27241591 27.12730244 262.62271209 29.47502569 264.97053623 31.82540011 C266.94185225 33.79779576 268.91615913 35.76718476 270.89039683 37.73665529 C275.55071612 42.38593588 280.20575817 47.04045334 284.85752106 51.69829369 C289.63630187 56.48312212 294.424209 61.25867741 299.21663404 66.0298366 C303.35312836 70.14865784 307.48373072 74.27332453 311.60977435 78.40261465 C314.06458535 80.85922813 316.5215062 83.31362676 318.98420715 85.76233292 C321.73014446 88.49324281 324.46374127 91.23630873 327.19638824 93.98052025 C328.00067261 94.77716087 328.80495697 95.5738015 329.63361359 96.39458275 C335.67336937 102.49074436 341.11335671 109.06867226 344.29306793 117.13701439 C344.59857574 117.87951439 344.90408356 118.62201439 345.21884918 119.38701439 C347.52288081 127.70515936 347.12456646 136.48575565 347.1142807 145.03954124 C347.11615145 146.44047648 347.1184532 147.8414112 347.12114602 149.24234509 C347.12723784 153.07345408 347.12713353 156.90454116 347.12595165 160.73565388 C347.12574698 164.87484571 347.13127271 169.01403064 347.13600922 173.15321922 C347.14430191 181.2557114 347.14706343 189.35819631 347.14762159 197.46069238 C347.1480974 204.04932634 347.15015538 210.63795791 347.15332222 217.22659111 C347.16212496 235.92232503 347.16674218 254.61805321 347.16599175 273.31378922 C347.16593181 274.82440091 347.16593181 274.82440091 347.16587067 276.36553001 C347.16582979 277.37383949 347.16578891 278.38214896 347.16574679 279.42101327 C347.1653404 295.75904753 347.17490895 312.09705874 347.18900903 328.43508634 C347.20338544 345.22628994 347.21027852 362.01748231 347.20941526 378.80869222 C347.20908373 388.22947047 347.21181146 397.65022454 347.22259331 407.07099724 C347.23171494 415.09229031 347.23385991 423.11354825 347.22708388 431.13484427 C347.2238271 435.22352992 347.22373148 439.31214823 347.23243713 443.40082741 C347.24034038 447.15138006 347.23883201 450.9018124 347.230153 454.65236226 C347.22790901 456.63559755 347.2354165 458.61883669 347.24339265 460.60205722 C347.18527962 475.82518426 345.5360207 489.42052482 334.85556793 501.01201439 C327.56295333 507.82175637 318.56227236 512.25255818 308.5527792 512.27123547 C307.4438789 512.27569331 306.3349786 512.28015115 305.19247526 512.28474408 C303.97430838 512.28455972 302.75614151 512.28437536 301.50106049 512.28418541 C300.20683436 512.2878621 298.91260823 512.29153879 297.57916313 512.29532689 C293.98373526 512.3053389 290.38832407 512.3090624 286.79288423 512.3117162 C282.91608177 512.31562166 279.03929251 512.32519988 275.16249847 512.33392906 C265.79807198 512.35368738 256.43364441 512.36375921 247.06920227 512.37265685 C242.65796898 512.37704108 238.24673688 512.38240757 233.83550453 512.38764572 C219.16894626 512.40465792 204.50238873 512.41915148 189.83582211 512.42639446 C186.03014818 512.42830432 182.22447426 512.43022466 178.41880035 512.4321804 C176.99999824 512.43290601 176.99999824 512.43290601 175.55253346 512.43364628 C160.23451385 512.44194429 144.9165724 512.46727738 129.59858691 512.49976108 C113.86750296 512.53284847 98.1364587 512.55084477 82.40533978 512.5540387 C73.57472422 512.55620232 64.74422259 512.56492919 55.91364098 512.59049988 C48.39206828 512.61222988 40.87063721 512.62024603 33.34903669 512.6105331 C29.51370575 512.60599494 25.67866686 512.60784605 21.84337616 512.62729454 C17.67836671 512.64823187 13.51400209 512.63791993 9.34896088 512.62476158 C7.54513314 512.64121545 7.54513314 512.64121545 5.70486444 512.65800172 C-6.83406669 512.56254434 -16.20052594 508.7682442 -25.14833832 500.06670189 C-37.65960111 486.84116811 -37.32248638 470.55310164 -37.27339935 453.33672142 C-37.27570763 451.56110125 -37.27888661 449.78548204 -37.28285384 448.00986481 C-37.29116003 443.16163128 -37.28709565 438.31347705 -37.2808814 433.46524334 C-37.27634075 428.22454176 -37.28334866 422.98385344 -37.28884125 417.74315453 C-37.29771969 407.48885884 -37.29582014 397.23459248 -37.29001597 386.98029566 C-37.28549339 378.64404402 -37.28488915 370.30780059 -37.2870636 361.97154808 C-37.28737006 360.78365751 -37.28767653 359.59576695 -37.28799228 358.3718797 C-37.28863175 355.95846414 -37.28928018 353.54504859 -37.28993747 351.13163304 C-37.29563622 328.51786294 -37.28908999 305.90410906 -37.27833673 283.29034162 C-37.26940164 263.9000317 -37.27095381 244.50974574 -37.28017426 225.11943626 C-37.2908849 202.58482723 -37.29508694 180.05023241 -37.28894973 157.51562119 C-37.28831265 155.11124102 -37.28768391 152.70686086 -37.2870636 150.3024807 C-37.28675505 149.11957738 -37.2864465 147.93667406 -37.2861286 146.71792519 C-37.28440404 138.39474783 -37.28731159 130.07157951 -37.29202271 121.74840355 C-37.29764036 111.60087438 -37.29609647 101.45337614 -37.28546122 91.30585051 C-37.28021644 86.13160151 -37.2781274 80.95740402 -37.28475952 75.78315544 C-37.29074581 71.04094081 -37.28739985 66.29882514 -37.27680442 61.55661941 C-37.27458172 59.84682937 -37.27568109 58.13703086 -37.28055599 56.42724633 C-37.32432379 39.79241391 -36.78695172 24.16895949 -24.89443207 11.26201439 C-18.2210911 5.0305415 -9.31008308 0.03169576 0 0 Z M-13.01943207 24.13701439 C-19.12594589 31.90777726 -20.14277577 38.93447152 -20.14806652 48.68867874 C-20.14981956 49.42005997 -20.1515726 50.15144119 -20.15337875 50.90498549 C-20.15802337 53.35090838 -20.15557723 55.79677143 -20.15314484 58.24269676 C-20.15501358 60.01598856 -20.15731453 61.78927995 -20.16001016 63.56257069 C-20.16612665 68.43206116 -20.16599474 73.30153446 -20.16481578 78.1710279 C-20.16461174 83.42402584 -20.17013083 88.67701828 -20.17487335 93.93001366 C-20.18317939 104.21987618 -20.18592816 114.50973297 -20.18648573 124.79959856 C-20.18696087 133.16272365 -20.18901549 141.52584684 -20.19218636 149.88897133 C-20.20099243 173.59716149 -20.20560575 197.30534713 -20.20485588 221.01353894 C-20.20481593 222.29162471 -20.20477597 223.56971047 -20.2047348 224.88652611 C-20.20469392 226.16617116 -20.20465304 227.4458162 -20.20461092 228.76423837 C-20.20420436 249.50880445 -20.21377667 270.25335239 -20.22787317 290.99791323 C-20.24223137 312.2955233 -20.24914367 333.59312452 -20.24827939 354.89073956 C-20.24794725 366.84888546 -20.25070178 378.80701234 -20.26145744 390.76515388 C-20.27055507 400.94514591 -20.27274372 411.12511028 -20.26594802 421.3051046 C-20.26267924 426.49907101 -20.26263912 431.69298434 -20.27130127 436.88694572 C-20.27915117 441.6427568 -20.27775027 446.39847257 -20.26901714 451.15428127 C-20.26747884 452.8736021 -20.26931072 454.59292999 -20.27487721 456.31224249 C-20.46748406 474.03013169 -20.46748406 474.03013169 -12.01943207 489.13701439 C-2.80187795 496.38046301 5.88315858 496.28602344 17.15094757 496.27072716 C18.98799246 496.27412549 18.98799246 496.27412549 20.86214936 496.27759248 C24.24944815 496.28281763 27.63669375 496.28357909 31.02399278 496.2823981 C34.68188495 496.28219363 38.33976928 496.28771728 41.99765778 496.29245567 C49.15926985 496.30075231 56.32087369 496.30351006 63.48249017 496.30406805 C69.30461596 496.30454363 75.12673905 496.30660045 80.94886398 496.30976868 C97.46317587 496.31857212 113.97748127 496.32318847 130.49179552 496.3224382 C131.82646003 496.32237827 131.82646003 496.32237827 133.18808746 496.32231712 C134.07895259 496.32227624 134.96981772 496.32223536 135.88767876 496.32219324 C150.32738495 496.32178674 164.76706508 496.33135825 179.20676373 496.34545549 C194.04070344 496.35982314 208.87463043 496.36672548 223.70857728 496.36586171 C232.03378852 496.36552991 240.35897243 496.36826998 248.6841774 496.37903976 C255.77165883 496.38814982 262.85910053 496.39031582 269.94658528 496.38353034 C273.5608523 496.38026785 277.17504309 496.38019868 280.78930283 496.38888359 C284.71164408 496.39821171 288.63387432 496.39196557 292.55622101 496.38425255 C293.69251509 496.38939611 294.82880916 496.39453967 295.9995364 496.3998391 C306.29871148 496.35509807 315.12833885 495.31156516 322.98056793 488.13701439 C330.55878969 478.49344918 330.12786873 469.25645691 330.10755157 457.46585655 C330.10870456 456.06578359 330.11029327 454.66571092 330.11227882 453.26563889 C330.11644772 449.42789625 330.11439246 445.59017852 330.1112926 441.7524358 C330.10902882 437.60993604 330.11252298 433.46744055 330.11527252 429.32494164 C330.11971859 421.2138276 330.11875894 413.10272283 330.11585988 404.99160843 C330.11360145 398.40000635 330.11329524 391.80840686 330.1143837 385.2168045 C330.11453693 384.27863781 330.11469016 383.34047112 330.11484804 382.37387513 C330.11516776 380.46801725 330.11549198 378.56215938 330.11582063 376.65630151 C330.11867198 358.78642903 330.11539373 340.91656169 330.11002026 323.04669005 C330.10555181 307.7116426 330.10632917 292.37660272 330.11093903 277.0415554 C330.11628962 259.23404394 330.11839809 241.42653697 330.11532676 223.61902481 C330.11500821 221.72048605 330.11469384 219.82194728 330.1143837 217.92340851 C330.11422942 216.98928431 330.11407515 216.05516012 330.1139162 215.09272913 C330.11305255 208.50810357 330.11451063 201.92348086 330.11686325 195.33885574 C330.11966678 187.31585721 330.11891123 179.29286846 330.11358251 171.26987105 C330.11095311 167.17600993 330.10992759 163.08216514 330.11323166 158.98830414 C330.11621019 155.24115166 330.11457576 151.49403064 330.10925411 147.74688102 C330.107607 145.74843847 330.11087362 143.74999374 330.11431134 141.75155348 C330.11039972 139.96880273 330.11039972 139.96880273 330.10640907 138.15003681 C330.10624672 137.12630811 330.10608437 136.1025794 330.1059171 135.04782861 C329.9750188 132.00815439 329.54092015 129.12495209 328.98056793 126.13701439 C327.71380722 126.14145561 326.44704651 126.14589684 325.14189911 126.15047264 C313.20867352 126.19100156 301.27546189 126.22099058 289.34218311 126.24063873 C283.2070485 126.25107957 277.07196941 126.26524438 270.93686676 126.2878933 C265.01707856 126.30961078 259.0973438 126.32158076 253.17751884 126.32676888 C250.91807145 126.33046658 248.65862701 126.33768718 246.39920235 126.3484745 C243.23656245 126.36297471 240.07414388 126.36499292 236.91147614 126.36406517 C235.50777771 126.374851 235.50777771 126.374851 234.07572174 126.38585472 C225.40979107 126.35831453 225.40979107 126.35831453 221.98056793 124.13701439 C219.10418824 119.69648534 219.71430196 114.30968329 219.75351715 109.20610619 C219.7532251 108.21051186 219.75293304 107.21491753 219.75263214 106.18915367 C219.75402331 102.90475758 219.76957471 99.62058951 219.78525543 96.33623314 C219.78898631 94.05651537 219.79183293 91.77679599 219.79383087 89.49707603 C219.80146139 83.50146101 219.821105 77.50594313 219.84323883 71.51036644 C219.86370971 65.39048641 219.87283525 59.27059067 219.88291168 53.15068626 C219.90435135 41.14608633 219.93848038 29.14155844 219.98056793 17.13701439 C215.4827097 16.0133258 211.0725466 15.99434694 206.46744537 16.00330162 C205.61197735 16.00103606 204.75650932 15.99877051 203.87511802 15.9964363 C201.0095381 15.99010793 198.14400562 15.99092492 195.27841949 15.99175072 C193.22334482 15.98875847 191.1682707 15.98535579 189.11319733 15.9815731 C183.53041953 15.9727348 177.94765705 15.97039504 172.36487293 15.96975732 C168.87604933 15.96904663 165.38722962 15.96691193 161.89840698 15.9642601 C149.72429405 15.95500671 137.55019207 15.95092514 125.37607574 15.95171165 C114.03299513 15.9523122 102.68996212 15.94176483 91.34689355 15.92596799 C81.60490452 15.91288499 71.86293104 15.90752809 62.12093329 15.90816706 C56.30409049 15.90842186 50.48728997 15.90558082 44.67045593 15.89498901 C39.19740184 15.88529549 33.72443033 15.88523751 28.25137329 15.89250565 C26.24590179 15.89354998 24.24042511 15.89119761 22.23496246 15.88514519 C19.49042022 15.87740071 16.74616142 15.88208633 14.00162506 15.88977623 C12.82041561 15.88206089 12.82041561 15.88206089 11.61534333 15.87418967 C2.23867906 15.93196608 -5.94665211 17.6746432 -13.01943207 24.13701439 Z M235.98056793 29.13701439 C235.98056793 55.86701439 235.98056793 82.59701439 235.98056793 110.13701439 C262.71056793 110.13701439 289.44056793 110.13701439 316.98056793 110.13701439 C312.33561237 104.66569436 312.33561237 104.66569436 307.45644379 99.4859066 C306.82699356 98.85363655 306.19754333 98.2213665 305.54901886 97.56993675 C304.88020691 96.90314903 304.21139496 96.23636131 303.52231598 95.5493679 C302.80128189 94.8265815 302.0802478 94.10379509 301.3373642 93.35910606 C298.97483235 90.99220439 296.60869946 88.6289417 294.24228668 86.26592064 C292.59401321 84.61697317 290.94588818 82.96787731 289.29790497 81.31863976 C285.85577662 77.87504142 282.41185642 74.43324795 278.96665192 70.99272728 C274.53998274 66.57178193 270.11785388 62.14632641 265.69703197 57.71953487 C262.30093642 54.31983773 258.90247758 50.92251112 255.50328255 47.52591324 C253.87057549 45.89387518 252.23861622 44.2610887 250.60740471 42.62755585 C248.33795477 40.35558311 246.0653533 38.08681199 243.79184723 35.81889915 C243.11291412 35.13794182 242.43398102 34.45698448 241.73447418 33.75539207 C239.23825635 30.64209377 239.23825635 30.64209377 235.98056793 29.13701439 Z " fill="#5B39FE" transform="translate(101.0194320678711,-0.13701438903808594)"/>
<path d="M0 0 C8.1147577 6.38093592 14.12518725 14.94203405 16.0625 25.25 C16.92531933 37.81038637 16.0318219 49.28902418 7.72265625 59.42578125 C4.94282275 62.48032771 2.06149409 65.41071566 -0.9375 68.25 C-0.06609375 68.62769531 0.8053125 69.00539063 1.703125 69.39453125 C18.17524616 77.00664785 30.0914018 89.12447481 37.25708008 106.00463867 C41.59784645 118.10589005 41.56059566 130.30476273 41.50854492 143.00219727 C41.4999507 146.20587751 41.52902734 149.40781922 41.56054688 152.61132812 C41.56215729 154.66666614 41.56158442 156.72200728 41.55859375 158.77734375 C41.56982773 159.72536362 41.58106171 160.67338348 41.59263611 161.65013123 C41.52924833 167.69946248 40.73360104 171.36973374 37.0625 176.25 C32.31499952 180.28330092 27.03273534 179.67965828 21.12524414 179.65405273 C20.02224472 179.66091599 18.9192453 179.66777924 17.78282166 179.67485046 C14.13763548 179.6931481 10.49287848 179.68927657 6.84765625 179.68359375 C4.3132666 179.68815409 1.77887819 179.69345922 -0.75550842 179.69947815 C-6.06744999 179.70841511 -11.37923523 179.70621324 -16.69116211 179.69604492 C-22.823274 179.68456565 -28.95494844 179.69863796 -35.08700269 179.7254414 C-40.99608897 179.75029904 -46.90503969 179.75277146 -52.81418037 179.74632454 C-55.32399791 179.74617113 -57.83382378 179.75223194 -60.34361076 179.76461601 C-63.85302143 179.77949243 -67.36146908 179.76887223 -70.87084961 179.75170898 C-72.42568558 179.76621094 -72.42568558 179.76621094 -74.01193237 179.78100586 C-79.96788313 179.72000872 -83.40791127 179.23072999 -87.9375 175.25 C-91.66379143 170.04214139 -91.37416947 164.77951572 -91.3359375 158.62109375 C-91.33880768 157.59500504 -91.34167786 156.56891632 -91.34463501 155.51173401 C-91.34667248 153.34237109 -91.34116484 151.17298967 -91.32861328 149.00366211 C-91.3126711 145.72271329 -91.32841338 142.44301811 -91.34765625 139.16210938 C-91.3631664 125.36879233 -90.90759159 112.69291427 -84.4375 100.1875 C-84.09565674 99.51976562 -83.75381348 98.85203125 -83.40161133 98.1640625 C-75.99973359 84.42733309 -63.53181618 73.72737298 -48.9375 68.25 C-49.60136719 67.64414063 -50.26523438 67.03828125 -50.94921875 66.4140625 C-59.64841635 58.15934945 -65.19297257 49.66489142 -66.2734375 37.453125 C-66.39512905 25.13793967 -64.16946168 14.89517398 -55.9375 5.25 C-40.40017093 -9.85723 -18.14181227 -12.48785994 0 0 Z M-45.375 20.03125 C-49.48806791 25.87180643 -49.85189962 32.29302144 -48.9375 39.25 C-46.27340927 47.32230924 -42.21389793 51.64697517 -35.0625 56 C-28.50063534 58.62474587 -22.53060191 58.93929157 -15.9375 56.25 C-8.3201571 52.35186311 -3.65235306 47.39455917 -0.9375 39.25 C-0.19866671 31.86166713 -0.73206216 25.51090465 -4.9375 19.25 C-10.52660677 12.89424585 -16.47020424 9.7543721 -24.8125 8.8125 C-33.69386803 9.26527563 -39.8913248 13.22087918 -45.375 20.03125 Z M-25.9375 82.25 C-26.44704907 85.58194499 -26.94337014 88.91573634 -27.4375 92.25 C-27.58058594 93.18457031 -27.72367188 94.11914062 -27.87109375 95.08203125 C-28.67125999 100.53078234 -29.23795592 105.74164147 -28.9375 111.25 C-27.60391006 113.259245 -27.60391006 113.259245 -25.9375 114.25 C-23.2469472 113.02992056 -23.2469472 113.02992056 -20.9375 111.25 C-20.63806856 104.78228089 -21.46003466 98.63434567 -22.4375 92.25 C-22.58058594 91.28449219 -22.72367187 90.31898438 -22.87109375 89.32421875 C-23.22142426 86.96532665 -23.5769935 84.60735455 -23.9375 82.25 C-24.5975 82.25 -25.2575 82.25 -25.9375 82.25 Z M-54.9375 91.25 C-55.87722656 91.91708984 -55.87722656 91.91708984 -56.8359375 92.59765625 C-66.27634088 99.92358014 -71.64243278 111.77466392 -73.9375 123.25 C-73.9375 136.12 -73.9375 148.99 -73.9375 162.25 C-41.5975 162.25 -9.2575 162.25 24.0625 162.25 C25.6602113 125.33412299 25.6602113 125.33412299 9.83203125 94.91796875 C4.84682924 90.21889313 -0.14332413 86.44776604 -6.9375 85.25 C-6.80118164 86.26984985 -6.80118164 86.26984985 -6.66210938 87.31030273 C-6.24788976 90.43527107 -5.84264128 93.56134226 -5.4375 96.6875 C-5.29441406 97.75677734 -5.15132813 98.82605469 -5.00390625 99.92773438 C-4.60517132 103.03217058 -4.25514258 106.13628367 -3.9375 109.25 C-3.79429321 110.53161011 -3.79429321 110.53161011 -3.64819336 111.83911133 C-3.36108713 116.24248207 -3.55839944 117.74889006 -6.31640625 121.39453125 C-7.35522282 122.30989806 -8.41744854 123.19929747 -9.5 124.0625 C-10.27053711 124.73829102 -10.27053711 124.73829102 -11.05664062 125.42773438 C-15.64189094 129.34086104 -20.19908109 133.15472392 -26.41796875 133.37109375 C-31.00604441 131.90963125 -33.75702223 129.54284787 -37.25 126.3125 C-38.1790918 125.48588867 -38.1790918 125.48588867 -39.12695312 124.64257812 C-45.91908972 118.57316616 -45.91908972 118.57316616 -46.15625 114.41015625 C-46.0226093 108.45479256 -45.22672381 102.58534819 -44.4375 96.6875 C-44.22287109 95.03137695 -44.22287109 95.03137695 -44.00390625 93.34179688 C-43.6535201 90.6438235 -43.29794731 87.9466444 -42.9375 85.25 C-47.83378305 85.25 -51.07049129 88.4499753 -54.9375 91.25 Z " fill="#6437FE" transform="translate(280.9375,124.75)"/>
<path d="M0 0 C1.0461337 -0.00467997 2.0922674 -0.00935994 3.17010212 -0.01418173 C6.68083122 -0.02616219 10.19117219 -0.01666232 13.7019043 -0.00723267 C16.21666695 -0.011297 18.73142783 -0.01663809 21.2461853 -0.02316284 C27.37070936 -0.03543573 33.49508932 -0.03362086 39.61961532 -0.02492492 C44.59705622 -0.01815021 49.57446621 -0.01723073 54.5519104 -0.02049637 C55.61446752 -0.02118592 55.61446752 -0.02118592 56.69849044 -0.0218894 C58.13752612 -0.02284857 59.5765618 -0.02382121 61.01559746 -0.02480717 C74.50995922 -0.03336213 88.00425984 -0.02352527 101.49861157 -0.00740607 C113.07779966 0.00599722 124.65689752 0.00366916 136.23608398 -0.01016235 C149.68210301 -0.0262163 163.12806845 -0.03253815 176.57409573 -0.02332556 C178.00784237 -0.02236991 179.44158903 -0.0214268 180.87533569 -0.02049637 C181.58076942 -0.02003354 182.28620315 -0.01957072 183.01301366 -0.01909386 C187.9845698 -0.01650341 192.95609195 -0.02087615 197.92764282 -0.02793503 C204.61875747 -0.03722659 211.30967524 -0.03061289 218.00078201 -0.01325226 C220.45944561 -0.00927859 222.91812352 -0.01043642 225.37678146 -0.01704025 C228.72713166 -0.02521082 232.07693119 -0.01498793 235.42724609 0 C236.40535405 -0.00669217 237.38346201 -0.01338433 238.3912096 -0.02027929 C243.27244995 0.02221596 246.82005705 0.07728253 250.71362305 3.38095093 C252.52938322 6.93352518 252.85504298 8.71242036 252.02612305 12.63095093 C250.71362305 15.38095093 250.71362305 15.38095093 247.71362305 17.38095093 C245.67850262 17.63395059 245.67850262 17.63395059 243.29513645 17.63821983 C242.38594725 17.64466873 241.47675805 17.65111762 240.54001766 17.65776193 C239.53983811 17.65466473 238.53965856 17.65156752 237.50917053 17.64837646 C235.91697359 17.65517313 235.91697359 17.65517313 234.29261106 17.66210711 C230.71814239 17.67481768 227.14382478 17.67312645 223.56933594 17.67147827 C221.01383771 17.67745932 218.4583413 17.68426387 215.90284729 17.6918335 C209.67147081 17.70770146 203.44015012 17.71394369 197.20875532 17.71505825 C192.1449726 17.71600795 187.08120239 17.72011429 182.01742363 17.7264595 C167.667647 17.74407529 153.3179003 17.75329775 138.96811277 17.75179856 C138.19424103 17.75171864 137.42036928 17.75163873 136.62304688 17.7515564 C135.84823278 17.75147464 135.07341869 17.75139287 134.27512538 17.75130863 C121.71350596 17.75049545 109.15200637 17.76964044 96.59042162 17.79783313 C83.6991173 17.82653808 70.80787147 17.84037477 57.91653436 17.83864558 C50.67623393 17.83798089 43.43605913 17.84350768 36.19578743 17.86500168 C29.38894731 17.88507915 22.58241714 17.88456434 15.77554893 17.86996841 C13.27292113 17.86786917 10.77027702 17.87264701 8.26767731 17.88468933 C4.85982071 17.90002956 1.45289448 17.89090747 -1.9549408 17.87542725 C-2.95288963 17.88571437 -3.95083846 17.8960015 -4.97902817 17.90660036 C-11.65424147 17.83926531 -11.65424147 17.83926531 -14.87740421 15.50238991 C-16.5434247 12.99392349 -17.13939092 11.39416471 -17.28637695 8.38095093 C-16.5469224 5.27524182 -15.79756817 3.8083719 -13.34333801 1.75632286 C-8.89543609 -0.24485391 -4.82525616 -0.03301416 0 0 Z " fill="#8D32FE" transform="translate(138.286376953125,374.6190490722656)"/>
<path d="M0 0 C0.89662997 -0.00583219 1.79325993 -0.01166439 2.71706051 -0.01767331 C3.69808131 -0.01389399 4.6791021 -0.01011467 5.68985081 -0.00622082 C7.25776972 -0.01195914 7.25776972 -0.01195914 8.85736376 -0.01781338 C12.37112127 -0.02815853 15.88471583 -0.02414832 19.39848423 -0.02018261 C21.91309861 -0.02452823 24.42771166 -0.02971087 26.94232273 -0.03567028 C33.07029558 -0.04769287 39.19820804 -0.05020976 45.3261904 -0.04787002 C50.3065114 -0.04608783 55.28681908 -0.04783436 60.26713848 -0.05209446 C60.97564538 -0.05268965 61.68415229 -0.05328484 62.4141291 -0.05389806 C63.85340631 -0.0551098 65.29268352 -0.05632393 66.73196072 -0.05754044 C80.23297869 -0.06841973 93.7339717 -0.06625162 107.23499108 -0.06015559 C119.58892249 -0.05498583 131.94277506 -0.06624272 144.29669087 -0.08525381 C156.9789783 -0.10462075 169.6612284 -0.11289024 182.34353071 -0.10913056 C189.46477449 -0.10721681 196.58595116 -0.10972301 203.70718288 -0.1238451 C210.40237837 -0.13698784 217.09739023 -0.13451447 223.79259396 -0.12143421 C226.25287268 -0.11906083 228.71316242 -0.12183021 231.17342854 -0.13005733 C234.52601206 -0.14046184 237.8780585 -0.13247448 241.23062229 -0.11974621 C242.20941237 -0.12712049 243.18820245 -0.13449478 244.19665283 -0.14209253 C249.07997654 -0.10295729 252.62884185 -0.05186884 256.52372837 3.25447559 C258.33948855 6.80704985 258.6651483 8.58594502 257.83622837 12.50447559 C256.52372837 15.25447559 256.52372837 15.25447559 253.52372837 17.25447559 C251.48860794 17.50747526 251.48860794 17.50747526 249.10524178 17.5117445 C248.19605258 17.51819339 247.28686338 17.52464228 246.35012299 17.5312866 C245.34994343 17.52818939 244.34976388 17.52509219 243.31927586 17.52190113 C241.72707892 17.5286978 241.72707892 17.5286978 240.10271639 17.53563178 C236.52824771 17.54834235 232.9539301 17.54665112 229.37944126 17.54500294 C226.82394304 17.55098398 224.26844663 17.55778854 221.71295261 17.56535816 C215.48157613 17.58122612 209.25025544 17.58746836 203.01886065 17.58858292 C197.95507793 17.58953261 192.89130772 17.59363896 187.82752895 17.59998417 C173.47775232 17.61759995 159.12800562 17.62682241 144.7782181 17.62532322 C144.00434635 17.62524331 143.2304746 17.6251634 142.4331522 17.62508106 C141.6583381 17.6249993 140.88352401 17.62491754 140.0852307 17.6248333 C127.52361128 17.62402011 114.96211169 17.64316511 102.40052695 17.6713578 C89.50922263 17.70006275 76.61797679 17.71389944 63.72663969 17.71217024 C56.48633925 17.71150555 49.24616445 17.71703235 42.00589275 17.73852634 C35.19905263 17.75860382 28.39252246 17.75808901 21.58565426 17.74349308 C19.08302645 17.74139383 16.58038234 17.74617168 14.07778263 17.758214 C10.66992603 17.77355423 7.2629998 17.76443214 3.85516453 17.74895191 C2.8572157 17.75923904 1.85926686 17.76952616 0.83107716 17.78012502 C-5.84643072 17.71276683 -5.84643072 17.71276683 -9.06339264 15.37200832 C-10.76649672 12.81950478 -11.40285994 11.33776671 -11.47627163 8.25447559 C-9.47676809 2.88738714 -9.47676809 2.88738714 -6.64275736 1.09459907 C-4.26457152 0.17238217 -2.54430412 0.00285135 0 0 Z " fill="#8634FE" transform="translate(132.4762716293335,332.7455244064331)"/>
<path d="M0 0 C1.05082804 -0.00445668 1.05082804 -0.00445668 2.12288493 -0.0090034 C4.4819749 -0.01770934 6.84101424 -0.01920024 9.20011902 -0.02069092 C10.88686227 -0.02531777 12.57360448 -0.03034225 14.26034546 -0.03573608 C18.85132502 -0.04887532 23.44228995 -0.05530806 28.03328538 -0.05974674 C30.90009843 -0.06267515 33.76690746 -0.06677953 36.63371849 -0.07125092 C45.59904074 -0.08493016 54.56435383 -0.0945946 63.5296858 -0.09845281 C73.88665608 -0.10293407 84.24349443 -0.12048336 94.60042459 -0.1494534 C102.60047961 -0.17105574 110.60049747 -0.18115632 118.60058135 -0.18249393 C123.38115008 -0.18354304 128.16159486 -0.18947335 132.94213295 -0.20731354 C137.43927185 -0.2237691 141.93619328 -0.225962 146.43335152 -0.21717453 C148.08413016 -0.21640279 149.73492038 -0.22076488 151.38566971 -0.23063278 C153.63929051 -0.24331457 155.89213675 -0.23749658 158.14575195 -0.22705078 C159.4069325 -0.22851734 160.66811304 -0.2299839 161.96751118 -0.2314949 C165.53389913 0.1709733 167.42023431 0.98958423 170.26335144 3.14044189 C171.83270738 6.27915377 171.61536247 8.67900011 171.26335144 12.14044189 C168.66637301 15.50794297 167.16847044 16.96883648 162.94465637 17.7696476 C161.6726236 17.77153273 160.40059082 17.77341785 159.0900116 17.77536011 C158.37872919 17.78316006 157.66744678 17.79096001 156.93461037 17.79899633 C154.55668105 17.81890385 152.18035446 17.80315844 149.80241394 17.78741455 C148.09551561 17.79419129 146.3886246 17.80309474 144.68174744 17.81396484 C140.04944176 17.83675824 135.4176929 17.82792177 130.7853775 17.81206942 C125.93768818 17.79941062 121.09004654 17.81115047 116.24235535 17.81900024 C108.10148051 17.82809686 99.96083247 17.81610856 91.81999207 17.79229736 C82.40799344 17.76508605 72.99653636 17.77390021 63.58455086 17.80142939 C55.50371223 17.8241191 47.42303663 17.82732122 39.34217644 17.81423604 C34.51578266 17.80644077 29.68964342 17.80540203 24.86326599 17.82191849 C20.32567749 17.836362 15.78878718 17.82634397 11.25127411 17.7974472 C9.58599761 17.79083571 7.92066236 17.79273521 6.25540924 17.80376053 C3.98171015 17.81742638 1.71024779 17.80029203 -0.56330872 17.77536011 C-1.83534149 17.77347498 -3.10737427 17.77158985 -4.41795349 17.7696476 C-8.63945901 16.96927417 -10.12831713 15.49390632 -12.73664856 12.14044189 C-13.29914856 8.57794189 -13.29914856 8.57794189 -12.73664856 5.14044189 C-8.87534628 0.24945901 -6.03351861 0.01424363 0 0 Z " fill="#9531FE" transform="translate(176.7366485595703,416.85955810546875)"/>
</svg>
