<svg xmlns="http://www.w3.org/2000/svg" width="512" height="512"><path fill="#5B39FE" d="m101.02-.137 2.408-.015 2.628-.002 2.806-.013c3.11-.014 6.22-.02 9.331-.026l6.683-.025c7.322-.026 14.645-.041 21.968-.055l7.566-.017a31388 31388 0 0 1 39.645-.06l2.05-.002c10.946-.013 21.891-.046 32.837-.088q16.875-.063 33.752-.071c6.312-.004 12.623-.016 18.935-.048q8.914-.044 17.827-.025 3.263 0 6.526-.025c19.859-.152 31.084 4.018 45.597 17.927a1072 1072 0 0 1 4.723 4.71l2.635 2.619q3.532 3.515 7.053 7.041 2.958 2.958 5.92 5.912 6.99 6.974 13.967 13.961 7.17 7.176 14.36 14.332a6911 6911 0 0 1 12.392 12.373 3239 3239 0 0 0 7.375 7.36c2.746 2.73 5.48 5.473 8.212 8.218l2.437 2.414c6.04 6.096 11.48 12.674 14.66 20.742l.925 2.25c2.304 8.318 1.906 17.099 1.896 25.653l.007 4.202q.008 5.747.004 11.494.002 6.209.01 12.417.012 12.154.012 24.308 0 9.882.006 19.766.013 28.043.012 56.087v6.107q.002 24.507.023 49.014.023 25.186.02 50.374-.001 14.13.014 28.262.014 12.032.005 24.064-.007 6.133.005 12.266.011 5.625-.002 11.251c-.003 1.984.005 3.967.013 5.95-.058 15.223-1.708 28.819-12.388 40.41-7.293 6.81-16.293 11.24-26.303 11.26l-3.36.013h-3.692l-3.921.01q-5.394.014-10.787.017-5.814.007-11.63.022c-9.364.02-18.729.03-28.093.039q-6.618.007-13.234.015a66057 66057 0 0 1-55.417.044l-2.866.002c-15.318.008-30.636.033-45.954.066q-23.596.049-47.193.054c-8.83.002-17.661.01-26.492.036q-11.282.034-22.565.02c-3.835-.004-7.67-.002-11.505.017-4.165.021-8.33.01-12.495-.002l-3.644.033c-12.539-.095-21.905-3.89-30.853-12.591-12.511-13.226-12.174-29.514-12.125-46.73q-.003-2.664-.01-5.327c-.008-4.848-.004-9.697.003-14.545.004-5.24-.003-10.481-.008-15.722-.01-10.254-.007-20.508-.002-30.763q.007-12.504.003-25.008v-3.6l-.003-7.24q-.006-33.921.012-67.842.012-29.085-.002-58.17a90423 90423 0 0 1-.007-74.818l.001-3.584q.003-12.484-.006-24.97-.009-15.221.007-30.442.009-7.762 0-15.523-.008-7.113.009-14.226.003-2.565-.004-5.13c-.044-16.635.493-32.258 12.386-45.165C82.798 4.894 91.709-.105 101.019-.137M88 24c-6.107 7.77-7.123 14.797-7.129 24.552l-.005 2.216c-.005 2.446-.002 4.892 0 7.338l-.007 5.32q-.008 7.304-.004 14.608-.002 7.88-.01 15.759-.012 15.435-.012 30.87 0 12.544-.006 25.089-.013 35.562-.012 71.125v7.75q-.002 31.118-.023 62.234-.023 31.947-.02 63.893.001 17.937-.014 35.874-.014 15.27-.005 30.54.007 7.791-.005 15.582-.011 7.133.002 14.267.003 2.58-.005 5.158C80.552 473.893 80.552 473.893 89 489c9.218 7.243 17.903 7.149 29.17 7.134l3.712.007q5.08.007 10.161.004c3.658 0 7.316.006 10.974.01q10.743.012 21.485.012 8.733 0 17.466.006 24.772.013 49.543.012h5.397q21.658.002 43.318.023 22.251.023 44.502.02 12.487-.001 24.976.014 10.631.014 21.262.005 5.42-.007 10.843.005c3.922.01 7.844.003 11.767-.005l3.443.016c10.3-.045 19.129-1.088 26.981-8.263 7.578-9.644 7.147-18.88 7.127-30.671l.005-4.2q.005-5.757-.001-11.514-.002-6.214.004-12.427.005-12.167 0-24.333a38946 38946 0 0 1 0-28.336q.004-26.805-.006-53.61-.005-23.002.001-46.004a112958 112958 0 0 0 .004-59.119v-2.83q-.002-9.878.002-19.754.004-12.034-.003-24.07-.005-6.14 0-12.28.004-5.622-.004-11.242-.002-2.998.005-5.995l-.008-3.602v-3.102c-.132-3.04-.566-5.923-1.126-8.911l-3.839.013q-17.9.061-35.8.09-9.202.015-18.405.048-8.88.032-17.759.039-3.39.005-6.778.021c-3.163.015-6.325.017-9.488.016l-2.836.022c-8.666-.028-8.666-.028-12.095-2.249-2.876-4.44-2.266-9.827-2.227-14.93v-3.018c0-3.284.016-6.568.032-9.853l.008-6.839c.008-5.996.028-11.991.05-17.987.02-6.12.03-12.24.04-18.36.02-12.004.055-24.008.097-36.013-4.498-1.124-8.908-1.143-13.513-1.134l-2.592-.007q-4.3-.007-8.597-.004l-6.165-.01q-8.375-.013-16.749-.012-5.233-.002-10.466-.006-18.261-.014-36.522-.012-17.016-.001-34.03-.026-14.613-.019-29.226-.018-8.724.002-17.45-.013-8.21-.014-16.42-.003-3.007.003-6.016-.007c-2.744-.008-5.488-.003-8.233.005l-2.386-.016c-9.377.058-17.562 1.8-24.635 8.263m249 5v81h81c-4.645-5.471-4.645-5.471-9.524-10.651l-1.908-1.916-2.026-2.02-2.185-2.19q-3.545-3.55-7.095-7.094l-4.945-4.947a16344 16344 0 0 0-10.33-10.326q-6.641-6.633-13.27-13.273-5.096-5.1-10.194-10.194l-4.896-4.898q-3.405-3.407-6.816-6.81l-2.057-2.063c-2.496-3.113-2.496-3.113-5.754-4.618"/><path fill="#6437FE" d="M280.938 124.75c8.114 6.38 14.125 14.942 16.062 25.25.863 12.56-.03 24.039-8.34 34.176A166 166 0 0 1 280 193l2.64 1.145c16.473 7.612 28.389 19.73 35.555 36.61 4.34 12.1 4.303 24.3 4.251 36.997-.009 3.204.02 6.406.052 9.61q.003 3.083-.002 6.165l.034 2.873c-.063 6.05-.859 9.72-4.53 14.6-4.748 4.033-10.03 3.43-15.937 3.404l-3.343.02c-3.645.02-7.29.015-10.935.01l-7.603.015q-7.968.013-15.936-.003c-6.132-.011-12.263.003-18.396.03-5.909.024-11.818.027-17.727.02q-3.765 0-7.53.019c-3.509.014-7.017.004-10.526-.013l-3.141.029c-5.956-.061-9.396-.55-13.926-4.531-3.726-5.208-3.437-10.47-3.398-16.629l-.01-3.11q-.002-3.253.017-6.507c.016-3.281 0-6.561-.02-9.842-.015-13.793.44-26.47 6.911-38.974l1.036-2.024c7.402-13.737 19.87-24.437 34.464-29.914l-2.012-1.836c-8.699-8.255-14.243-16.75-15.324-28.96-.122-12.316 2.104-22.559 10.336-32.204 15.537-15.107 37.796-17.738 55.938-5.25m-45.375 20.031c-4.114 5.84-4.477 12.262-3.563 19.219 2.664 8.072 6.724 12.397 13.875 16.75 6.562 2.625 12.532 2.94 19.125.25 7.617-3.898 12.285-8.855 15-17 .739-7.388.205-13.74-4-20-5.59-6.356-11.533-9.496-19.875-10.437-8.881.452-15.079 4.408-20.562 11.218M255 207c-.51 3.332-1.006 6.666-1.5 10l-.434 2.832c-.8 5.449-1.366 10.66-1.066 16.168 1.334 2.01 1.334 2.01 3 3 2.69-1.22 2.69-1.22 5-3 .3-6.468-.523-12.616-1.5-19l-.434-2.926q-.525-3.538-1.066-7.074zm-29 9-1.898 1.348c-9.44 7.326-14.807 19.177-17.102 30.652v39h98c1.598-36.916 1.598-36.916-14.23-67.332-4.986-4.7-9.976-8.47-16.77-9.668l.275 2.06c.415 3.125.82 6.251 1.225 9.377l.434 3.24c.398 3.105.748 6.21 1.066 9.323l.29 2.59c.286 4.402.09 5.909-2.669 9.555a85 85 0 0 1-3.183 2.667l-1.557 1.366c-4.585 3.913-9.143 7.727-15.361 7.943-4.589-1.461-7.34-3.828-10.833-7.058l-1.876-1.67c-6.793-6.07-6.793-6.07-7.03-10.233.134-5.955.93-11.825 1.719-17.722l.434-3.346q.525-4.047 1.066-8.092c-4.896 0-8.133 3.2-12 6"/><path fill="#8D32FE" d="m138.286 374.619 3.17-.014c3.511-.012 7.022-.003 10.532.007q3.772-.007 7.545-.016c6.124-.012 12.248-.01 18.373-.002q7.466.01 14.932.005l2.147-.002 4.317-.003c13.494-.008 26.989.002 40.483.018q17.37.018 34.737-.003a21467 21467 0 0 1 44.64-.01l2.137.001q7.457.003 14.915-.009 10.037-.014 20.073.015 3.689.006 7.376-.004c3.35-.008 6.7.002 10.05.017l2.965-.02c4.88.042 8.428.097 12.322 3.401 1.816 3.553 2.141 5.331 1.313 9.25C389 390 389 390 386 392c-2.035.253-2.035.253-4.418.257l-2.756.02-3.03-.01-3.217.014c-3.574.013-7.149.011-10.723.01q-3.833.008-7.667.02-9.346.023-18.694.023-7.596.001-15.191.012a32318 32318 0 0 1-45.395.025h-2.347c-12.562-.001-25.124.018-37.685.046q-19.338.043-38.674.04c-7.24 0-14.48.006-21.72.027q-10.211.029-20.421.005-3.754-.003-7.508.015c-3.408.015-6.815.006-10.223-.01l-3.024.032c-6.675-.068-6.675-.068-9.898-2.405-1.666-2.508-2.262-4.108-2.409-7.121.74-3.106 1.489-4.573 3.943-6.625 4.448-2 8.518-1.789 13.343-1.756"/><path fill="#8634FE" d="m132.476 332.746 2.717-.018 2.973.011 3.168-.011c3.513-.01 7.027-.007 10.54-.003l7.545-.015q9.191-.017 18.383-.012a12315 12315 0 0 0 21.406-.01q20.252-.014 40.503-.003c12.354.006 24.708-.006 37.062-.025q19.024-.03 38.047-.024c7.121.002 14.242 0 21.363-.014q10.043-.018 20.086.002 3.69.004 7.38-.009c3.353-.01 6.705-.002 10.058.01l2.966-.022c4.883.04 8.432.09 12.327 3.397 1.816 3.553 2.141 5.331 1.312 9.25C389 348 389 348 386 350c-2.035.253-2.035.253-4.418.257l-2.756.02-3.03-.01-3.217.014c-3.574.013-7.149.011-10.723.01q-3.834.008-7.667.02-9.346.023-18.694.023-7.596.001-15.191.012-21.525.026-43.05.025h-4.692c-12.562-.001-25.124.018-37.685.046q-19.338.043-38.674.04c-7.24 0-14.48.006-21.72.027q-10.211.029-20.421.005-3.754-.003-7.508.015c-3.408.015-6.815.006-10.223-.01l-3.024.032c-6.677-.068-6.677-.068-9.894-2.408-1.703-2.553-2.34-4.035-2.413-7.118 2-5.367 2-5.367 4.834-7.16 2.378-.922 4.098-1.092 6.642-1.094"/><path fill="#9531FE" d="m176.737 416.86 2.123-.01q3.538-.01 7.077-.011l5.06-.015q6.887-.019 13.773-.024 4.3-.005 8.6-.012 13.449-.02 26.896-.027 15.535-.007 31.071-.05 12-.033 24-.034 7.17 0 14.342-.025 6.746-.023 13.491-.01 2.476.002 4.952-.013a659 659 0 0 1 6.76.004l3.822-.005c3.567.403 5.453 1.221 8.296 3.372 1.57 3.139 1.352 5.539 1 9-2.597 3.368-4.095 4.828-8.319 5.63l-3.854.005-2.156.024c-2.378.02-4.754.004-7.132-.012q-2.56.01-5.12.027c-4.633.022-9.265.013-13.897-.002-4.848-.013-9.695-.001-14.543.007-8.14.009-16.282-.003-24.422-.027-9.412-.027-18.824-.019-28.236.009q-12.12.034-24.242.013c-4.827-.008-9.653-.009-14.48.007q-6.806.021-13.611-.024a472 472 0 0 0-4.996.006c-2.274.014-4.545-.003-6.819-.028l-3.854-.006c-4.222-.8-5.71-2.276-8.319-5.629-.563-3.563-.563-3.563 0-7 3.861-4.891 6.703-5.126 12.737-5.14"/></svg>